<svg xmlns="http://www.w3.org/2000/svg" viewBox="0 0 200 200">

  <!-- Cross/plus body with rounded outer corners, sharp inner corners -->
  <path d="
    M 79,0
    L 121,0
    A 12,12 0 0 1 133,12
    L 133,67
    L 188,67
    A 12,12 0 0 1 200,79
    L 200,121
    A 12,12 0 0 1 188,133
    L 133,133
    L 133,188
    A 12,12 0 0 1 121,200
    L 79,200
    A 12,12 0 0 1 67,188
    L 67,133
    L 12,133
    A 12,12 0 0 1 0,121
    L 0,79
    A 12,12 0 0 1 12,67
    L 67,67
    L 67,12
    A 12,12 0 0 1 79,0
    Z
  " fill="#e8e8e8"/>

  <!-- Up arrow -->
  <polygon points="100,22 83,52 117,52" fill="#1a1a1a"/>

  <!-- Down arrow -->
  <polygon points="100,178 83,148 117,148" fill="#1a1a1a"/>

  <!-- Left arrow -->
  <polygon points="22,100 52,83 52,117" fill="#1a1a1a"/>

  <!-- Right arrow -->
  <polygon points="178,100 148,83 148,117" fill="#1a1a1a"/>

  <!-- Center circle -->
  <circle cx="100" cy="100" r="18" fill="#1a1a1a"/>

</svg>
